#!OML:ASF H:\Terrain\Patient Classification 1\Walking\liu\liu.ASF
:FULLY-SPECIFIED
:DEGREES
256
root 9.85512 17.0014 4.67801 4.97121 0.169233 3.58338
lowerback -4.29522 -2.41435 -5.57109
upperback 0.304106 -2.97522 1.53285
thorax 3.09281 -1.58733 4.50235
lowerneck -21.8321 -3.39078 -11.6792
upperneck 23.3265 -4.0169 11.7433
head 11.7388 -1.37536 5.74084
rclavicle 7.25564e-015 -3.97569e-015
rhumerus -43.5269 12.1318 -88.4609
rradius 32.8585
rwrist -14.0061
rhand -30.4208 -27.4791
rfingers 7.12502
rthumb -3.72385 -57.4263
lclavicle 7.25564e-015 -3.97569e-015
lhumerus -18.1758 -14.5646 87.894
lradius 24.1114
lwrist -2.07785
lhand -13.1621 -26.617
lfingers 7.12502
lthumb 12.9369 2.96199
rfemur -32.6492 -4.83912 19.424
rtibia 57.7181
rfoot -12.9798 -12.2072
rtoes -16.9618
lfemur -8.62675 2.83448 -28.2303
ltibia 21.4149
lfoot -17.0807 5.33211
ltoes -5.1595
257
root 9.85725 16.9987 4.82303 4.91489 0.176903 3.50136
lowerback -4.31314 -2.46005 -5.5654
upperback 0.389177 -3.03739 1.63642
thorax 3.20449 -1.62463 4.59949
lowerneck -22.0324 -3.39259 -11.6325
upperneck 23.4332 -3.95728 11.5193
head 11.8038 -1.36777 5.66127
rclavicle -1.06847e-014 -7.15625e-015
rhumerus -43.7305 11.9855 -88.2459
rradius 32.5463
rwrist -13.5922
rhand -30.9208 -27.6613
rfingers 7.12502
rthumb -4.20663 -57.5995
lclavicle -1.06847e-014 -7.15625e-015
lhumerus -17.2944 -14.8001 87.813
lradius 24.3927
lwrist -1.80974
lhand -13.3416 -26.6688
lfingers 7.12502
lthumb 12.7639 2.92106
rfemur -33.014 -4.30584 19.5161
rtibia 55.5868
rfoot -13.9708 -10.9726
rtoes -19.5754
lfemur -7.79288 2.59104 -28.0934
ltibia 21.0105
lfoot -17.2938 5.46094
ltoes -4.34648
258
root 9.85849 16.9953 4.9689 4.92571 0.358314 3.37174
lowerback -4.33738 -2.5647 -5.50636
upperback 0.459905 -3.18237 1.77652
thorax 3.31457 -1.70235 4.6977
lowerneck -22.5911 -3.50069 -11.5278
upperneck 23.8841 -3.99486 11.0859
head 12.0806 -1.4196 5.49221
rclavicle 3.93594e-014 0
rhumerus -43.9365 12.0385 -88.0532
rradius 32.1318
rwrist -14.0482
rhand -29.8113 -26.1653
rfingers 7.12502
rthumb -3.1352 -56.122
lclavicle 3.93594e-014 0
lhumerus -16.4505 -15.0737 87.7771
lradius 24.7494
lwrist -1.43282
lhand -13.6021 -26.5172
lfingers 7.12502
lthumb 12.5127 3.08821
rfemur -33.3435 -3.85412 19.5856
rtibia 53.3143
rfoot -13.6434 -12.2266
rtoes -17.5376
lfemur -6.95493 2.22805 -27.9255
ltibia 20.4769
lfoot -17.5749 5.71783
ltoes -4.66568
259
root 9.85474 16.9852 5.108 5.12524 0.548829 3.60188
lowerback -4.4449 -2.65127 -5.75268
upperback 0.41178 -3.27855 1.74947
thorax 3.35 -1.75422 4.79672
lowerneck -22.606 -3.57402 -11.8457
upperneck 23.9254 -4.06678 11.3672
head 12.1245 -1.44619 5.64964
rclavicle -2.8128e-014 -3.97569e-015
rhumerus -44.4089 12.4383 -88.3425
rradius 31.9993
rwrist -15.5256
rhand -30.709 -23.802
rfingers 7.12502
rthumb -4.00213 -53.7442
lclavicle -2.8128e-014 -3.97569e-015
lhumerus -15.833 -16.0148 87.7351
lradius 25.2702
lwrist -0.582818
lhand -13.9587 -26.3935
lfingers 7.12502
lthumb 12.1689 3.23252
rfemur -33.874 -3.08917 19.0438
rtibia 51.0416
rfoot -15.5144 -11.0393
rtoes -16.2845
lfemur -6.14991 2.12176 -28.1663
ltibia 19.6064
lfoot -17.6379 5.84018
ltoes -5.81549
260
root 9.8431 16.9909 5.23736 5.39513 0.632862 3.4128
lowerback -4.4207 -2.66909 -5.66675
upperback 0.253203 -3.31353 1.83693
thorax 3.17604 -1.7621 4.84165
lowerneck -22.1366 -3.47812 -12.1294
upperneck 23.4949 -4.00657 11.9127
head 11.8764 -1.38484 5.90021
rclavicle 4.96962e-016 7.15625e-015
rhumerus -44.8298 12.5518 -88.4859
rradius 31.8502
rwrist -15.8167
rhand -31.4677 -23.0151
rfingers 7.12502
rthumb -4.7348 -52.9422
lclavicle 4.96962e-016 7.15625e-015
lhumerus -15.3621 -17.3814 87.7015
lradius 25.884
lwrist 0.712966
lhand -14.1488 -26.4872
lfingers 7.12502
lthumb 11.9857 3.14961
rfemur -34.3571 -1.84713 18.9087
rtibia 48.6024
rfoot -15.8029 -11.5363
rtoes -13.3212
lfemur -5.58382 2.16206 -27.9165
ltibia 18.8911
lfoot -17.5923 5.98992
ltoes -6.88085
261
root 9.84674 17.0005 5.42181 5.20258 0.690235 3.56425
lowerback -4.90057 -2.69438 -5.71028
upperback 0.58153 -3.30882 1.71771
thorax 3.78323 -1.78447 4.71312
lowerneck -22.1648 -3.483 -11.8871
upperneck 23.2421 -4.06904 11.883
head 11.7881 -1.39108 5.8232
rclavicle -1.57537e-014 -1.59028e-015
rhumerus -44.6346 11.8271 -88.0017
rradius 31.6578
rwrist -13.9436
rhand -29.7067 -24.7353
rfingers 7.12502
rthumb -3.03421 -54.6934
lclavicle -1.57537e-014 -1.59028e-015
lhumerus -14.5684 -18.5468 87.4606
lradius 26.5373
lwrist 1.81641
lhand -14.1954 -26.4825
lfingers 7.12502
lthumb 11.9407 3.157
rfemur -34.0927 -1.35169 18.496
rtibia 46.2812
rfoot -15.8071 -11.4914
rtoes -15.2918
lfemur -3.72473 2.36928 -28.0391
ltibia 17.1099
lfoot -17.3772 5.72577
ltoes -6.58772
262
root 9.83323 17.0028 5.55703 5.428 0.744668 3.18782
lowerback -4.59321 -2.75898 -5.52581
upperback 0.172294 -3.4359 1.93565
thorax 3.20228 -1.82045 4.84911
lowerneck -22.0308 -3.39539 -11.7028
upperneck 23.6002 -3.94689 11.5091
head 11.8674 -1.37267 5.6793
rclavicle 6.75868e-015 2.38542e-015
rhumerus -45.3211 11.4347 -87.5789
rradius 31.4504
rwrist -12.3511
rhand -28.1636 -25.5267
rfingers 7.12502
rthumb -1.54395 -55.5008
lclavicle 6.75868e-015 2.38542e-015
lhumerus -14.7043 -18.5659 87.5441
lradius 27.1354
lwrist 2.00145
lhand -14.3703 -26.5903
lfingers 7.12502
lthumb 11.772 3.05886
rfemur -34.4593 -0.398875 18.7467
rtibia 43.6109
rfoot -15.3908 -11.8612
rtoes -18.9501
lfemur -3.02781 2.34382 -27.4941
ltibia 16.1067
lfoot -17.229 5.40266
ltoes -5.90653
263
root 9.8612 16.9948 5.77794 4.8743 0.748521 4.89416
lowerback -4.99126 -2.88989 -6.94364
upperback 0.578083 -3.4771 1.41393
thorax 3.91096 -1.89408 5.06945
lowerneck -22.0379 -3.31562 -11.727
upperneck 23.4947 -3.79716 11.4495
head 11.8057 -1.31373 5.67962
rclavicle -1.12313e-014 5.56597e-015
rhumerus -45.5081 11.3097 -87.3143
rradius 31.0451
rwrist -12.1273
rhand -28.0926 -25.3639
rfingers 7.12502
rthumb -1.47531 -55.3385
lclavicle -1.12313e-014 5.56597e-015
lhumerus -14.0865 -18.5621 87.4412
lradius 27.619
lwrist 2.13764
lhand -14.449 -26.7046
lfingers 7.12502
lthumb 11.6961 2.94893
rfemur -33.7891 -0.935428 16.5752
rtibia 41.2974
rfoot -15.4971 -10.62
rtoes -21.6679
lfemur -0.377388 2.55564 -29.4359
ltibia 14.0813
lfoot -17.161 5.20537
ltoes -5.59437
264
root 9.82198 16.9975 5.85455 5.72338 0.890409 3.74061
lowerback -4.97704 -2.87562 -6.17053
upperback 0.197516 -3.52996 1.85971
thorax 3.49235 -1.88675 5.10688
lowerneck -21.8594 -3.29643 -11.6979
upperneck 23.261 -3.7901 11.4751
head 11.6802 -1.3069 5.67254
rclavicle -3.32467e-014 -1.27222e-014
rhumerus -45.8466 11.3292 -87.3287
rradius 30.9171
rwrist -12.3432
rhand -28.4817 -25.9994
rfingers 7.12502
rthumb -1.85117 -55.9711
lclavicle -3.32467e-014 -1.27222e-014
lhumerus -13.4926 -18.9869 87.3253
lradius 28.2349
lwrist 2.75087
lhand -14.3233 -26.4789
lfingers 7.12502
lthumb 11.8174 3.1677
rfemur -35.1312 1.1629 17.4372
rtibia 38.5713
rfoot -15.7962 -11.7806
rtoes -21.0837
lfemur -0.505568 2.15115 -27.9976
ltibia 12.6439
lfoot -16.2477 5.55194
ltoes -5.28939
265
root 9.83654 17.0008 6.05474 5.43983 1.02225 4.74651
lowerback -5.34107 -2.97746 -6.89558
upperback 0.488742 -3.57472 1.43968
thorax 4.02728 -1.94285 5.04558
lowerneck -21.8554 -3.2496 -11.6181
upperneck 23.0161 -3.79354 11.6884
head 11.59 -1.2726 5.73012
rclavicle 1.51076e-014 1.59028e-015
rhumerus -45.9484 11.2868 -87.5405
rradius 30.6338
rwrist -12.7483
rhand -29.9606 -25.7632
rfingers 7.12502
rthumb -3.27944 -55.7177
lclavicle 1.51076e-014 1.59028e-015
lhumerus -12.9729 -19.4519 87.0398
lradius 28.92
lwrist 3.31481
lhand -14.0534 -26.459
lfingers 7.12502
lthumb 12.0776 3.1725
rfemur -34.6941 1.10444 15.9733
rtibia 36.2048
rfoot -16.1068 -10.7169
rtoes -20.1468
lfemur 1.6711 2.44522 -29.0778
ltibia 10.6275
lfoot -15.7907 5.18329
ltoes -5.29879
266
root 9.83034 17.0037 6.20823 5.60768 0.65351 3.98111
lowerback -5.66573 -2.87171 -6.11683
upperback 0.619254 -3.46837 1.60598
thorax 4.29346 -1.88634 4.77455
lowerneck -22.0582 -3.2118 -11.5031
upperneck 22.8209 -3.76845 11.7814
head 11.5517 -1.23245 5.74353
rclavicle -1.73937e-015 -1.27222e-014
rhumerus -45.653 10.7418 -87.2973
rradius 29.8866
rwrist -12.9303
rhand -31.1456 -23.5006
rfingers 7.12502
rthumb -4.42373 -53.4344
lclavicle -1.73937e-015 -1.27222e-014
lhumerus -12.4552 -19.829 86.7204
lradius 29.6606
lwrist 3.79696
lhand -13.6483 -26.511
lfingers 7.12502
lthumb 12.4682 3.09706
rfemur -34.9291 2.85243 16.2693
rtibia 33.5036
rfoot -15.8606 -10.8058
rtoes -18.9518
lfemur 2.44105 3.17182 -28.1853
ltibia 9.79377
lfoot -15.7597 4.62359
ltoes -4.01637
